# xmcd
#
# Track frame offsets: 
#        150
#        17312
#        40664
#        56108
#        70838
#        87526
#        103864
#        118458
#        131844
#        149756
#        161306
#        174698
#
# Disc length: 2461 seconds
#
# Revision: 0
# Processed by: cddbd v1.5.2PL0 Copyright (c) Steve Scherf et al.
# Submitted via: ExactAudioCopy v0.99pb5
#
DISCID=b0099b0c
DTITLE=Pawel Szymanski - Uroda Zdarzen
DYEAR=2010
DGENRE=Blues
TTITLE0=Czarny Kot Przebiegl Mi Droge
TTITLE1=Grawitacja
TTITLE2=Niczyja Sprawa
TTITLE3=Za Pozno By Plakac
TTITLE4=Otch³añ Egzystencjalnej Pustki
TTITLE5=Miej Nas W Opiece Sw McDonaldzie
TTITLE6=Naprawde Cie Lubie
TTITLE7=Mój Przyjaciel Telewizor
TTITLE8=Mijamy Siê Na Schodach
TTITLE9=Kto Tu Nocuje
TTITLE10=Uroda Zdarzen
TTITLE11=Okno
EXTD=
EXTT0=
EXTT1=
EXTT2=
EXTT3=
EXTT4=
EXTT5=
EXTT6=
EXTT7=
EXTT8=
EXTT9=
EXTT10=
EXTT11=
PLAYORDER=
